<svg width="26" height="17" viewBox="0 0 26 17" fill="none" xmlns="http://www.w3.org/2000/svg">
<path d="M5.32522 16.513C5.08406 16.513 4.81507 16.4296 4.51826 16.2626C4.18899 16.0493 4.00348 15.7733 3.96174 15.4348C3.95246 15.3652 3.94783 15.298 3.94783 15.233C3.94783 14.9687 4.02203 14.6974 4.17043 14.4191C4.32348 14.1409 4.55768 13.9461 4.87304 13.8348C4.97507 13.7977 5.08174 13.7791 5.19304 13.7791C5.42029 13.7791 5.66377 13.858 5.92348 14.0157C6.31304 14.2893 6.50783 14.6626 6.50783 15.1357C6.50783 15.3768 6.44058 15.6296 6.30609 15.8939C6.17623 16.1583 5.95362 16.3461 5.63826 16.4574C5.54087 16.4945 5.43652 16.513 5.32522 16.513ZM8.00348 16.3043C7.77159 16.3043 7.53044 16.2232 7.28 16.0609C6.93217 15.8012 6.75826 15.4603 6.75826 15.0383C6.75826 14.76 6.8371 14.4817 6.99478 14.2035C7.1571 13.9252 7.39594 13.7374 7.7113 13.64C7.79942 13.6122 7.89217 13.5983 7.98957 13.5983C8.23072 13.5983 8.49275 13.6887 8.77565 13.8696C9.14667 14.1478 9.33217 14.4864 9.33217 14.8852C9.33217 15.1728 9.23942 15.4487 9.05391 15.713C8.87304 15.982 8.62029 16.1652 8.29565 16.2626C8.2029 16.2904 8.10551 16.3043 8.00348 16.3043ZM1.97217 15.8174C1.70319 15.8174 1.37855 15.7409 0.998261 15.5878L0.761739 15.4696L0.622609 15.3583C1.41101 13.8464 2.01159 12.5014 2.42435 11.3235C2.84174 10.1409 3.08058 9.24812 3.14087 8.64522C3.28928 8.43652 3.52348 8.33217 3.84348 8.33217C4.12638 8.33217 4.41391 8.38087 4.70609 8.47826C5.0029 8.57565 5.23015 8.68464 5.38783 8.80522C5.36928 8.92116 5.34609 9.04406 5.31826 9.17391C5.29507 9.33623 5.28348 9.50087 5.28348 9.66783C5.28348 10.5722 5.52928 11.2516 6.02087 11.7061C6.29449 11.9612 6.58203 12.0887 6.88348 12.0887C7.14783 12.0887 7.38203 11.9357 7.58609 11.6296C7.90145 11.0962 8.09159 10.2104 8.15652 8.97217L8.18435 8.54783C8.19362 8.28348 8.20754 8.09101 8.22609 7.97043C8.58783 7.85449 8.91015 7.79652 9.19304 7.79652C9.96754 7.79652 10.3548 8.19072 10.3548 8.97913C10.3548 9.11362 10.3432 9.26203 10.32 9.42435C10.1345 10.4586 9.64754 11.3559 8.85913 12.1165C8.1913 12.7194 7.3913 13.0209 6.45913 13.0209C5.51304 13.0209 4.82667 12.7217 4.4 12.1235C4.07536 12.9675 3.74609 13.7165 3.41217 14.3704C3.0829 15.0243 2.80232 15.4441 2.57043 15.6296C2.41739 15.7548 2.21797 15.8174 1.97217 15.8174ZM4.05217 7.69913C3.5513 7.69913 3.18493 7.45101 2.95304 6.95478C2.86493 6.76 2.82087 6.55826 2.82087 6.34957C2.82087 6.21971 2.8371 6.08522 2.86957 5.94609C2.98087 5.59826 3.19652 5.34319 3.51652 5.18087C3.72058 5.0742 3.92696 5.02087 4.13565 5.02087C4.26087 5.02087 4.43942 5.05565 4.6713 5.12522C4.90783 5.19014 5.11652 5.43826 5.29739 5.86957C5.36696 6.05043 5.40174 6.2313 5.40174 6.41217C5.40174 6.54667 5.37159 6.72522 5.3113 6.94783C5.25565 7.1658 5.06551 7.36058 4.74087 7.53217C4.49507 7.64348 4.26551 7.69913 4.05217 7.69913ZM14.8052 11.7896C15.0371 11.4835 15.1786 11.0986 15.2296 10.6348C15.2852 10.171 15.262 9.71884 15.16 9.27826C15.0626 8.83768 14.9003 8.49913 14.673 8.26261C14.4504 8.02145 14.1745 7.97275 13.8452 8.11652C13.6226 8.2371 13.4533 8.48058 13.3374 8.84696C13.2214 9.21333 13.1843 9.61449 13.2261 10.0504C13.2678 10.4864 13.4139 10.8713 13.6643 11.2052C13.9148 11.5391 14.2951 11.7339 14.8052 11.7896ZM14.3322 13C13.7664 13 13.2794 12.9119 12.8713 12.7357C12.4678 12.5548 12.1293 12.309 11.8557 11.9983C11.3409 11.3954 11.0719 10.7484 11.0487 10.0574C11.0255 9.36174 11.2087 8.73797 11.5983 8.18609C11.9878 7.62956 12.5397 7.25391 13.2539 7.05913C13.9681 6.86435 14.8052 6.96174 15.7652 7.3513C16.5583 7.71768 17.0475 8.26029 17.233 8.97913C17.4232 9.69797 17.4162 10.491 17.2122 11.3583C17.0081 12.2209 16.7136 13.0533 16.3287 13.8557C15.9438 14.6626 15.5728 15.3374 15.2157 15.88C14.8632 16.4226 14.6313 16.7287 14.52 16.7983C14.3067 16.84 14.1235 16.8586 13.9704 16.8539C13.8174 16.8539 13.6388 16.8377 13.4348 16.8052C13.4209 16.8006 13.4046 16.7959 13.3861 16.7913C13.3026 16.782 13.2145 16.7681 13.1217 16.7496C13.029 16.7357 12.9525 16.7194 12.8922 16.7009L12.4957 16.4852C12.6672 16.0771 12.8736 15.6991 13.1148 15.3513C13.2354 15.1612 13.3536 14.9687 13.4696 14.7739C13.5299 14.6672 13.5948 14.5559 13.6643 14.44C13.7988 14.2174 13.9264 13.9855 14.047 13.7443C14.1722 13.5032 14.2672 13.2551 14.3322 13ZM18.5826 12.833C18.5316 12.6522 18.5108 12.1652 18.52 11.3722C18.5293 10.5791 18.5548 9.68638 18.5965 8.69391C18.6429 7.70145 18.6963 6.81797 18.7565 6.04348C18.8168 5.26899 18.8771 4.81217 18.9374 4.67304C19.3177 4.53391 19.6794 4.48522 20.0226 4.52696C20.3705 4.5687 20.6742 4.6429 20.9339 4.74957C20.9989 5.06493 21.0174 5.67942 20.9896 6.59304C20.9664 7.50667 20.9223 8.48522 20.8574 9.5287C20.7971 10.5722 20.7438 11.4464 20.6974 12.1513C20.6742 12.4481 20.658 12.68 20.6487 12.847C20.2221 12.9722 19.8534 13.0232 19.5426 13C19.2365 12.9768 18.9281 12.9258 18.6174 12.847C18.6035 12.8423 18.5919 12.8377 18.5826 12.833ZM15.1879 3.37913C15.211 2.91536 15.3826 2.45391 15.7026 1.99478C16.0226 1.53565 16.3937 1.19942 16.8157 0.986087C17.4 0.721739 17.9171 0.626667 18.367 0.70087C18.8168 0.770434 19.218 0.935072 19.5705 1.19478C19.9229 1.45449 20.2476 1.73043 20.5444 2.02261C20.8644 2.35188 21.1728 2.60696 21.4696 2.78783C21.771 2.9687 22.0818 2.97333 22.4018 2.80174C22.6893 2.61623 22.9212 2.3542 23.0974 2.01565C23.2737 1.67246 23.4244 1.32 23.5496 0.958261C23.6331 0.735652 23.7165 0.529275 23.8 0.33913C24.2592 0.264928 24.6534 0.297391 24.9826 0.436522C25.3119 0.575652 25.5763 0.786666 25.7757 1.06956C25.7015 1.44522 25.5438 1.84638 25.3026 2.27304C25.0661 2.69971 24.8574 3.02203 24.6765 3.24C24.2406 3.75014 23.7467 4.06319 23.1948 4.17913C22.6429 4.29507 22.0934 4.25797 21.5461 4.06783C20.9989 3.87304 20.5119 3.56696 20.0852 3.14956C19.4313 2.49565 18.9328 2.10841 18.5896 1.98783C18.251 1.86725 17.9937 1.95304 17.8174 2.24522C17.6365 2.53739 17.4557 2.97565 17.2748 3.56C17.2516 3.6342 17.2261 3.70841 17.1983 3.78261C16.7855 3.89391 16.4052 3.90783 16.0574 3.82435C15.705 3.74087 15.4151 3.59246 15.1879 3.37913Z" fill="#E60023"/>
</svg>
